<?xml version="1.0" standalone="no"?>
<!DOCTYPE svg PUBLIC "-//W3C//DTD SVG 20010904//EN"
 "http://www.w3.org/TR/2001/REC-SVG-20010904/DTD/svg10.dtd">
<svg version="1.0" xmlns="http://www.w3.org/2000/svg"
 width="72.000000pt" height="72.000000pt" viewBox="0 0 72.000000 72.000000"
 preserveAspectRatio="xMidYMid meet">
<metadata>
Created by potrace 1.11, written by Peter Selinger 2001-2013
</metadata>
<g transform="translate(0.000000,72.000000) scale(0.100000,-0.100000)"
fill="#000000" stroke="none">
<path d="M137 583 c-4 -3 -7 -71 -7 -150 l0 -145 29 -29 29 -29 135 0 c131 0
136 1 166 26 19 16 31 35 31 50 0 21 5 24 35 24 74 0 135 59 135 130 0 47 -18
80 -59 107 -33 22 -41 23 -261 23 -125 0 -230 -3 -233 -7z m470 -75 c13 -12
23 -33 23 -47 0 -34 -37 -71 -72 -71 l-28 0 0 70 c0 69 0 70 27 70 15 0 37
-10 50 -22z"/>
<path d="M30 172 c0 -40 13 -42 311 -42 286 0 288 0 303 22 9 12 16 26 16 30
0 5 -142 8 -315 8 -297 0 -315 -1 -315 -18z"/>
</g>
</svg>
